<svg xmlns="http://www.w3.org/2000/svg" width="53" height="39" viewBox="0 0 53 39"><g><g><g><path fill="#b7bbb2" d="M28.374.583a3.442 3.442 0 0 0-3.833 0L.507 16.692c-.935.626-.491 2.084.635 2.084h7.683c.029 0 .051 18.874.051 18.874 0 .746.606 1.35 1.353 1.35h6.226c.77 0 1.395-.624 1.395-1.394v-9.668c0-4.593 3.444-8.652 8.033-8.954a8.53 8.53 0 0 1 6.648 2.508 8.525 8.525 0 0 1 2.53 6.063v10.162c0 .708.575 1.283 1.283 1.283h6.35c.747 0 1.352-.605 1.352-1.35V18.826c0-.028 7.85-.051 7.85-.051 1.088 0 1.518-1.41.614-2.016z"/></g><g><path fill="#b7bbb2" d="M28 26.5a1.5 1.5 0 1 1-2.999.001 1.5 1.5 0 0 1 2.999 0"/></g><g><path fill="#b7bbb2" d="M26.185 35c-.102 0-.185-.099-.185-.22v-8.562c0-.12.083-.218.185-.218.101 0 .184.099.184.218v8.562c0 .121-.083.22-.184.22"/></g><g><path fill="#b7bbb2" d="M29.199 39H23.8a.843.843 0 0 1-.836-.688l-.952-5.336a.836.836 0 0 1 .834-.976h7.305c.527 0 .926.467.835.976l-.953 5.336a.844.844 0 0 1-.835.688"/></g><g><path fill="#b7bbb2" d="M24.624 23.693c.303.708.419 1.434.362 2.042-.023.247-.21.34-.401.199-.469-.35-.908-.92-1.21-1.629-.303-.708-.42-1.433-.36-2.04.023-.25.211-.34.403-.196.468.352.903.916 1.206 1.624"/></g><g><path fill="#b7bbb2" d="M29.52 24.388c-.323.704-.75 1.247-1.186 1.56-.178.128-.333.013-.334-.25-.003-.637.16-1.384.48-2.089.323-.703.75-1.245 1.187-1.557.178-.128.334-.01.333.253 0 .64-.16 1.38-.48 2.083"/></g><g><path fill="#b7bbb2" d="M27 22.015c-.013.715-.154 1.364-.371 1.84-.09.196-.239.192-.321-.007-.202-.488-.32-1.15-.307-1.865.012-.715.152-1.363.371-1.84.09-.196.239-.19.32.012.202.492.32 1.145.307 1.86"/></g></g></g></svg>