<svg xmlns="http://www.w3.org/2000/svg" width="38" height="40" viewBox="0 0 38 40"><g><g><g><path fill="#b7bbb2" d="M4.5 9a4.5 4.5 0 1 0 0-9 4.5 4.5 0 0 0 0 9z"/></g><g><path fill="#b7bbb2" d="M18.5 9a4.5 4.5 0 1 0 0-9 4.5 4.5 0 0 0 0 9z"/></g><g><path fill="#b7bbb2" d="M33.5 9a4.5 4.5 0 1 0 0-9 4.5 4.5 0 0 0 0 9z"/></g><g><path fill="#b7bbb2" d="M4.5 24a4.5 4.5 0 1 0 0-9 4.5 4.5 0 0 0 0 9z"/></g><g><path fill="#b7bbb2" d="M18.5 24a4.5 4.5 0 1 0 0-9 4.5 4.5 0 0 0 0 9z"/></g><g><path fill="#b7bbb2" d="M33.5 24a4.5 4.5 0 1 0 0-9 4.5 4.5 0 0 0 0 9z"/></g><g><path fill="#b7bbb2" d="M4.5 40a4.5 4.5 0 1 0 0-9 4.5 4.5 0 0 0 0 9z"/></g><g><path fill="#b7bbb2" d="M18.5 40a4.5 4.5 0 1 0 0-9 4.5 4.5 0 0 0 0 9z"/></g><g><path fill="#b7bbb2" d="M33.5 40a4.5 4.5 0 1 0 0-9 4.5 4.5 0 0 0 0 9z"/></g></g></g></svg>